# xmcd CD database file generated by OrangeCD 5.2
#
# Track frame offsets:
#	150
#	15150
#	29170
#	41085
#	55170
#	65547
#	79650
#	94582
#	104217
#	118922
#
# Disc length: 1756 seconds
#
# Revision: 3
# Processed by: cddbd v1.5.1PL0 Copyright (c) Steve Scherf et al.
# Submitted via: OrangeCD 5.2
#
DISCID=8506da0a
DTITLE=Asleep At The Wheel - The Swingin' Best Of Asleep At The Wheel
DYEAR=1992
DGENRE=Country
TTITLE0=Chattanooga Choo Choo
TTITLE1=Coast To Coast
TTITLE2=Way Down Texas Way
TTITLE3=String Of Pars
TTITLE4=Blowin' Like A Bandit
TTITLE5=House Of Blue Lights
TTITLE6=Boogie Back To Texas
TTITLE7=Tulsa Straight Ahead
TTITLE8=Choo Choo Ch'Boogie
TTITLE9=Don't Ask Me Why (I'm Going To Texas)
EXTD=
EXTT0=
EXTT1=
EXTT2=
EXTT3=
EXTT4=
EXTT5=
EXTT6=
EXTT7=
EXTT8=
EXTT9=
PLAYORDER=
